<svg width="52" height="41" viewBox="0 0 52 41" fill="none" xmlns="http://www.w3.org/2000/svg">
<path id="Vector" d="M30.2383 40.4609H51.332V21.8672H38.793L38.9492 19.6797C39.0534 18.1432 39.3789 16.7826 39.9258 15.5977C40.4727 14.4128 41.2279 13.2474 42.1914 12.1016C42.9987 11.1641 44.0469 10.2461 45.3359 9.34766C46.625 8.44922 48.168 7.54427 49.9648 6.63281L46.5664 0.421875C45.1341 1.07292 43.7995 1.75 42.5625 2.45312C41.3255 3.15625 40.1862 3.87891 39.1445 4.62109C38.1029 5.36328 37.1719 6.13151 36.3516 6.92578C35.5312 7.72005 34.8086 8.52083 34.1836 9.32812C33.5326 10.2135 32.9596 11.1641 32.4648 12.1797C31.9701 13.1953 31.5599 14.2891 31.2344 15.4609C30.9089 16.6328 30.6615 17.8893 30.4922 19.2305C30.3229 20.5716 30.2383 22.0365 30.2383 23.625V40.4609ZM0.667969 40.4609H21.8398V21.8672H9.22266L9.37891 19.6797C9.50911 18.1432 9.84766 16.7826 10.3945 15.5977C10.9414 14.4128 11.6966 13.2604 12.6602 12.1406C13.4414 11.1771 14.4766 10.2461 15.7656 9.34766C17.0547 8.44922 18.6107 7.54427 20.4336 6.63281L17.0352 0.421875C15.5768 1.07292 14.2292 1.75 12.9922 2.45312C11.7552 3.15625 10.6224 3.88542 9.59375 4.64062C8.5651 5.39583 7.63411 6.16406 6.80078 6.94531C5.96745 7.72656 5.2513 8.52083 4.65234 9.32812C4.0013 10.2135 3.42839 11.1901 2.93359 12.2578C2.4388 13.3255 2.02214 14.4779 1.68359 15.7148C1.34505 16.9518 1.09115 18.2734 0.921875 19.6797C0.752604 21.0859 0.667969 22.5703 0.667969 24.1328V40.4609Z" fill="#B3C87A"/>
</svg>
