<svg xmlns="http://www.w3.org/2000/svg" width="55" height="51" viewBox="0 0 55 51" fill="none">
<path d="M27.5 0.526611L26.709 0.843018L1.81836 11.0735L0.5 11.6536V17.1379H4.66602V40.0247H0.5V50.4133H54.5V40.0247H50.334V17.1379H54.5V11.6536L53.1816 11.0735L27.5 0.526611ZM27.5 5.06177L46.959 13.0247H8.04102L27.5 5.06177ZM8.83203 17.1379H12.9453V40.0247H8.83203V17.1379ZM17.1113 17.1379H21.2773V40.0247H17.1113V17.1379ZM25.4434 17.1379H29.5566V40.0247H25.4434V17.1379ZM33.7227 17.1379H37.8887V40.0247H33.7227V17.1379ZM42.0547 17.1379H46.168V40.0247H42.0547V17.1379ZM4.66602 44.1907H50.334V46.2473H4.66602V44.1907Z" fill="#347A2A"/>
</svg>