<svg width="21" height="17" viewBox="0 0 21 17" fill="none" xmlns="http://www.w3.org/2000/svg">
<path id="Vector" d="M18.0619 16.47H2.96814C2.29106 16.47 1.71293 16.22 1.23376 15.72C0.754598 15.22 0.515015 14.6106 0.515015 13.8919V3.04813C0.515015 2.32938 0.754598 1.72 1.23376 1.22C1.71293 0.720001 2.29106 0.470001 2.96814 0.470001H18.0775C18.7442 0.470001 19.3171 0.722605 19.7963 1.22781C20.2754 1.73302 20.515 2.33979 20.515 3.04813V13.8919C20.515 14.6106 20.2754 15.22 19.7963 15.72C19.3171 16.22 18.739 16.47 18.0619 16.47ZM18.89 13.3919V3.54813C18.89 3.16271 18.7624 2.83198 18.5072 2.55594C18.252 2.2799 17.9369 2.14188 17.5619 2.14188H3.46814C3.09314 2.14188 2.77543 2.2799 2.51501 2.55594C2.2546 2.83198 2.12439 3.16271 2.12439 3.54813V13.3919C2.12439 13.7773 2.2546 14.108 2.51501 14.3841C2.77543 14.6601 3.09314 14.7981 3.46814 14.7981H17.5775C17.9421 14.7981 18.2546 14.6601 18.515 14.3841C18.7754 14.108 18.9056 13.7773 18.9056 13.3919H18.89ZM16.8431 12.22C16.7702 12.2929 16.6869 12.3502 16.5931 12.3919C16.4994 12.4335 16.4004 12.4544 16.2963 12.4544C16.2129 12.4544 16.1244 12.4361 16.0306 12.3997C15.9369 12.3632 15.8588 12.3085 15.7963 12.2356L12.8744 9.32938L11.0306 11.0794C10.9577 11.1419 10.877 11.1914 10.7885 11.2278C10.6999 11.2643 10.614 11.2825 10.5306 11.2825C10.4369 11.2825 10.3483 11.2669 10.265 11.2356C10.1817 11.2044 10.1036 11.1523 10.0306 11.0794L8.23376 9.39188L5.28064 12.2356C5.20772 12.3085 5.12699 12.3606 5.03845 12.3919C4.94991 12.4231 4.86397 12.4388 4.78064 12.4388C4.67647 12.4388 4.57751 12.4179 4.48376 12.3763C4.39001 12.3346 4.30668 12.2721 4.23376 12.1888C4.08793 12.0325 4.02022 11.8476 4.03064 11.6341C4.04106 11.4205 4.11918 11.2408 4.26501 11.095L7.12439 8.345L4.23376 5.86063C4.07751 5.71479 3.99418 5.53511 3.98376 5.32156C3.97335 5.10802 4.03585 4.91792 4.17126 4.75125C4.30668 4.595 4.47856 4.50906 4.68689 4.49344C4.89522 4.47781 5.07231 4.54292 5.21814 4.68875L8.64001 7.68875C8.66085 7.70958 8.68168 7.72781 8.70251 7.74344C8.72335 7.75906 8.74418 7.77729 8.76501 7.79813C8.76501 7.79813 8.76501 7.80073 8.76501 7.80594C8.76501 7.81115 8.77022 7.81375 8.78064 7.81375L10.5306 9.45438L15.7963 4.70438C15.9421 4.55854 16.1166 4.49083 16.3197 4.50125C16.5228 4.51167 16.6973 4.595 16.8431 4.75125C16.9786 4.91792 17.0411 5.10802 17.0306 5.32156C17.0202 5.53511 16.9369 5.71479 16.7806 5.86063L13.9838 8.29813L16.8119 11.1106C16.9577 11.2565 17.0332 11.4388 17.0385 11.6575C17.0437 11.8763 16.9786 12.0638 16.8431 12.22Z" fill="#B3C87A"/>
</svg>
