<svg width="20" height="20" viewBox="0 0 20 20" fill="none" xmlns="http://www.w3.org/2000/svg">
<path id="Vector" d="M19.392 15.555L18.3344 17.3919C17.9633 18.0351 17.4531 18.5423 16.8037 18.9134C16.1542 19.2845 15.4708 19.47 14.7534 19.47C14.5678 19.47 14.3792 19.4545 14.1874 19.4236C13.9957 19.3927 13.8071 19.3525 13.6215 19.303C12.8793 19.0804 12.1588 18.8082 11.4599 18.4866C10.761 18.165 10.0807 17.797 9.41889 17.3826C8.7571 16.9682 8.12006 16.5043 7.50775 15.991C6.89545 15.4777 6.30479 14.9241 5.73578 14.3304C5.12966 13.7613 4.57302 13.1676 4.06586 12.5491C3.5587 11.9306 3.09792 11.2936 2.68353 10.638C2.26915 9.98237 1.90114 9.30512 1.57953 8.60623C1.25791 7.90734 0.985779 7.1868 0.763123 6.44461C0.490988 5.55399 0.537374 4.66336 0.902283 3.77274C1.26719 2.88211 1.85785 2.19559 2.67426 1.71317L4.51117 0.674103C5.14203 0.340118 5.67702 0.315379 6.11615 0.599884C6.55528 0.884389 6.83051 1.1256 6.94183 1.32352L8.48187 3.79129C8.7169 4.21186 8.77875 4.65408 8.66742 5.11795C8.55609 5.58182 8.29633 5.94363 7.88812 6.2034L7.35004 6.53738C7.31293 6.56212 7.2851 6.59923 7.26654 6.64871C7.24799 6.69819 7.25108 6.74149 7.27582 6.77859C7.42426 7.14969 7.64073 7.54243 7.92523 7.95682C8.20974 8.37121 8.49115 8.75158 8.76947 9.09793C9.04779 9.44429 9.29209 9.73188 9.50238 9.96072C9.71267 10.1896 9.81781 10.304 9.81781 10.304C9.81781 10.3164 9.93223 10.4246 10.1611 10.6287C10.3899 10.8328 10.6744 11.0709 11.0146 11.343C11.3548 11.6152 11.7289 11.8904 12.1371 12.1687C12.5453 12.4471 12.9288 12.6604 13.2875 12.8089C13.3246 12.8212 13.3679 12.8212 13.4174 12.8089C13.4669 12.7965 13.504 12.7656 13.5287 12.7161L13.8627 12.178C14.1225 11.7698 14.4874 11.51 14.9575 11.3987C15.4275 11.2874 15.8728 11.3554 16.2934 11.6028L18.7241 13.1057C19.157 13.3531 19.4384 13.718 19.5683 14.2005C19.6982 14.6829 19.6394 15.1344 19.392 15.555ZM17.9077 14.4788L15.477 12.9573C15.4275 12.9326 15.3749 12.9295 15.3193 12.948C15.2636 12.9666 15.2234 12.9944 15.1987 13.0315L14.8647 13.5696C14.6297 13.9283 14.308 14.1757 13.8998 14.3118C13.4916 14.4479 13.0896 14.4355 12.6938 14.2747C12.2608 14.1015 11.8155 13.8603 11.3578 13.5511C10.9002 13.2418 10.4765 12.9357 10.0869 12.6326C9.69721 12.3295 9.37559 12.0605 9.12201 11.8255C8.86843 11.5904 8.72308 11.4606 8.68597 11.4358C8.67361 11.4111 8.54681 11.2657 8.3056 10.9998C8.06439 10.7338 7.78607 10.406 7.47064 10.0164C7.15521 9.62674 6.83978 9.19689 6.52435 8.72684C6.20892 8.25679 5.96462 7.80529 5.79144 7.37234C5.63064 6.97651 5.61517 6.57449 5.74506 6.16629C5.87494 5.75809 6.12543 5.43647 6.49652 5.20145L7.03461 4.84891C7.08409 4.82417 7.11501 4.78706 7.12738 4.73758C7.13975 4.6881 7.13357 4.64481 7.10883 4.6077L5.56879 2.12137C5.54405 2.04715 5.50075 2.01313 5.4389 2.01932C5.37706 2.0255 5.32758 2.03478 5.29047 2.04715L3.47211 3.10477C2.96495 3.38927 2.58457 3.80984 2.33099 4.36649C2.07741 4.92313 2.06195 5.4674 2.28461 5.9993C2.91547 7.49604 3.59581 8.8258 4.32562 9.98856C5.05544 11.1513 5.88422 12.1935 6.81195 13.115C7.73969 14.0366 8.7973 14.8746 9.9848 15.6292C11.1723 16.3837 12.533 17.1012 14.0668 17.7815C14.5987 18.0166 15.143 18.0042 15.6996 17.7444C16.2563 17.4846 16.6769 17.1012 16.9614 16.594L18.019 14.7757C18.0437 14.7262 18.0468 14.6736 18.0283 14.618C18.0097 14.5623 17.9695 14.5159 17.9077 14.4788ZM12.3227 4.47781C13.2257 4.47781 13.9957 4.79634 14.6328 5.43338C15.2698 6.07042 15.5883 6.84044 15.5883 7.74344C15.5883 7.95373 15.511 8.13618 15.3564 8.2908C15.2018 8.44542 15.0131 8.52274 14.7905 8.52274C14.5802 8.52274 14.3977 8.44542 14.2431 8.2908C14.0885 8.13618 14.0112 7.95373 14.0112 7.74344C14.0112 7.27339 13.8473 6.87446 13.5195 6.54666C13.1917 6.21886 12.7927 6.05496 12.3227 6.05496C12.1124 6.05496 11.93 5.97765 11.7753 5.82303C11.6207 5.66841 11.5434 5.48595 11.5434 5.27567C11.5434 5.05301 11.6207 4.86437 11.7753 4.70975C11.93 4.55512 12.1124 4.47781 12.3227 4.47781ZM18.2045 8.52274C17.9942 8.52274 17.8118 8.44542 17.6572 8.2908C17.5025 8.13618 17.4252 7.94754 17.4252 7.72488C17.4252 7.03218 17.2892 6.37658 17.017 5.75809C16.7449 5.1396 16.38 4.59842 15.9223 4.13455C15.4646 3.67068 14.9265 3.30578 14.308 3.03983C13.6896 2.77387 13.0278 2.6409 12.3227 2.6409C12.1124 2.6409 11.93 2.56359 11.7753 2.40897C11.6207 2.25434 11.5434 2.0657 11.5434 1.84305C11.5434 1.63276 11.6207 1.45031 11.7753 1.29568C11.93 1.14106 12.1124 1.06375 12.3227 1.06375C13.2504 1.06375 14.1194 1.23693 14.9296 1.58328C15.7398 1.92964 16.4449 2.40587 17.0449 3.01199C17.6448 3.61811 18.121 4.32628 18.4736 5.13651C18.8261 5.94673 19.0024 6.8157 19.0024 7.74344C19.0024 7.95373 18.9251 8.13618 18.7704 8.2908C18.6158 8.44542 18.4272 8.52274 18.2045 8.52274Z" fill="#B3C87A"/>
</svg>
