<svg width="17" height="21" viewBox="0 0 17 21" fill="none" xmlns="http://www.w3.org/2000/svg">
<path id="Vector" d="M16.4663 10.0013C16.4663 10.0143 16.4598 10.0403 16.4468 10.0794C16.4338 10.1184 16.4207 10.177 16.4077 10.2552C16.3426 10.5286 16.2677 10.7988 16.1831 11.0657C16.0985 11.3326 15.9976 11.5898 15.8804 11.8372C15.659 12.345 15.3693 12.9179 15.0112 13.5559C14.6532 14.194 14.2007 14.8743 13.6538 15.597C13.1069 16.3196 12.4494 17.0813 11.6812 17.8821C10.9129 18.6829 10.008 19.5065 8.96631 20.3528C8.91423 20.3919 8.85563 20.4212 8.79053 20.4407C8.72542 20.4602 8.66683 20.47 8.61475 20.47C8.54964 20.47 8.48454 20.4602 8.41943 20.4407C8.35433 20.4212 8.29574 20.3919 8.24365 20.3528C7.21501 19.5065 6.31331 18.6829 5.53857 17.8821C4.76383 17.0813 4.10303 16.3196 3.55615 15.597C3.00928 14.8743 2.5568 14.194 2.19873 13.5559C1.84066 12.9179 1.55094 12.345 1.32959 11.8372C1.2124 11.5898 1.11149 11.3326 1.02686 11.0657C0.94222 10.7988 0.86735 10.5286 0.802246 10.2552C0.789225 10.177 0.776204 10.1184 0.763184 10.0794C0.750163 10.0403 0.743652 10.0143 0.743652 10.0013C0.70459 9.75386 0.672038 9.5032 0.645996 9.2493C0.619954 8.99539 0.606934 8.73823 0.606934 8.47781C0.606934 7.38406 0.815267 6.34891 1.23193 5.37234C1.6486 4.39578 2.22152 3.54617 2.95068 2.82352C3.67985 2.10086 4.52946 1.52794 5.49951 1.10477C6.46956 0.68159 7.50146 0.470001 8.59521 0.470001C9.70199 0.470001 10.7404 0.68159 11.7104 1.10477C12.6805 1.52794 13.5269 2.10086 14.2495 2.82352C14.9722 3.54617 15.5451 4.39578 15.9683 5.37234C16.3914 6.34891 16.603 7.38406 16.603 8.47781C16.603 8.73823 16.59 8.99539 16.564 9.2493C16.5379 9.5032 16.5054 9.75386 16.4663 10.0013ZM8.67334 2.13016C7.80094 2.13016 6.97738 2.29943 6.20264 2.63797C5.4279 2.97651 4.75407 3.4355 4.18115 4.01492C3.60824 4.59435 3.15576 5.27143 2.82373 6.04617C2.4917 6.82091 2.32568 7.65099 2.32568 8.53641C2.32568 8.74474 2.33545 8.94982 2.35498 9.15164C2.37451 9.35346 2.40381 9.55203 2.44287 9.74734C2.44287 9.76037 2.44287 9.76688 2.44287 9.76688C2.44287 9.76688 2.44287 9.77339 2.44287 9.78641C2.44287 9.78641 2.44613 9.80268 2.45264 9.83524C2.45915 9.86779 2.46891 9.90359 2.48193 9.94266C2.48193 9.94266 2.48193 9.94591 2.48193 9.95242C2.48193 9.95893 2.48193 9.96219 2.48193 9.96219C2.53402 10.1835 2.59587 10.3984 2.66748 10.6067C2.7391 10.8151 2.82048 11.0234 2.91162 11.2317C2.91162 11.2317 2.91162 11.235 2.91162 11.2415C2.91162 11.248 2.91162 11.2513 2.91162 11.2513C3.09391 11.6809 3.3348 12.166 3.63428 12.7063C3.93376 13.2467 4.31136 13.8261 4.76709 14.4446C5.22282 15.0631 5.77295 15.7109 6.41748 16.388C7.06201 17.0651 7.81396 17.7682 8.67334 18.4973C9.53271 17.7682 10.2814 17.0651 10.9194 16.388C11.5575 15.7109 12.1043 15.0631 12.5601 14.4446C13.0158 13.8261 13.3934 13.2467 13.6929 12.7063C13.9924 12.166 14.2332 11.6809 14.4155 11.2513C14.4155 11.2513 14.4155 11.248 14.4155 11.2415C14.4155 11.235 14.4155 11.2317 14.4155 11.2317C14.5067 11.0234 14.5881 10.8151 14.6597 10.6067C14.7313 10.3984 14.7931 10.1835 14.8452 9.96219C14.8452 9.96219 14.8452 9.95893 14.8452 9.95242C14.8452 9.94591 14.8452 9.94266 14.8452 9.94266C14.8582 9.90359 14.868 9.86779 14.8745 9.83524C14.881 9.80268 14.8843 9.78641 14.8843 9.78641C14.8843 9.77339 14.8843 9.76688 14.8843 9.76688C14.9233 9.55854 14.9526 9.35346 14.9722 9.15164C14.9917 8.94982 15.0015 8.74474 15.0015 8.53641C15.0015 7.65099 14.8354 6.82091 14.5034 6.04617C14.1714 5.27143 13.7189 4.59435 13.146 4.01492C12.5731 3.4355 11.9025 2.97651 11.1343 2.63797C10.366 2.29943 9.54574 2.13016 8.67334 2.13016ZM8.61475 12.4817C8.06787 12.4817 7.55029 12.3743 7.06201 12.1595C6.57373 11.9446 6.15055 11.6582 5.79248 11.3001C5.43441 10.942 5.14795 10.5188 4.93311 10.0305C4.71826 9.54227 4.61084 9.02469 4.61084 8.47781C4.61084 7.93094 4.71826 7.41336 4.93311 6.92508C5.14795 6.4368 5.43441 6.01362 5.79248 5.65555C6.15055 5.29748 6.57373 5.01102 7.06201 4.79617C7.55029 4.58133 8.06787 4.47391 8.61475 4.47391C9.16162 4.47391 9.6792 4.58133 10.1675 4.79617C10.6558 5.01102 11.0822 5.29748 11.4468 5.65555C11.8114 6.01362 12.0978 6.4368 12.3062 6.92508C12.5145 7.41336 12.6187 7.93094 12.6187 8.47781C12.6187 9.02469 12.5145 9.54227 12.3062 10.0305C12.0978 10.5188 11.8114 10.942 11.4468 11.3001C11.0822 11.6582 10.6558 11.9446 10.1675 12.1595C9.6792 12.3743 9.16162 12.4817 8.61475 12.4817ZM8.61475 6.11453C7.9637 6.11453 7.40706 6.34565 6.94482 6.80789C6.48258 7.27013 6.25146 7.82677 6.25146 8.47781C6.25146 9.12886 6.48258 9.6855 6.94482 10.1477C7.40706 10.61 7.9637 10.8411 8.61475 10.8411C9.26579 10.8411 9.82243 10.61 10.2847 10.1477C10.7469 9.6855 10.978 9.12886 10.978 8.47781C10.978 7.82677 10.7469 7.27013 10.2847 6.80789C9.82243 6.34565 9.26579 6.11453 8.61475 6.11453Z" fill="#B3C87A"/>
</svg>
