<svg xmlns="http://www.w3.org/2000/svg" width="27" height="26" viewBox="0 0 27 26" fill="none">
<path d="M23.957 26H3.54297C2.78125 26 2.12533 25.7165 1.5752 25.1494C1.02507 24.5824 0.75 23.901 0.75 23.1055V10.5371C0.75 10.0462 0.881185 9.53418 1.14355 9.00098C1.40592 8.46777 1.73177 8.05729 2.12109 7.76953L4.48242 6.01758V4.31641C4.48242 3.91016 4.6263 3.55892 4.91406 3.2627C5.20182 2.96647 5.54883 2.81836 5.95508 2.81836H8.82422L8.79883 2.79297L11.6172 0.660156C12.2096 0.220052 12.9206 0 13.75 0C14.5794 0 15.2904 0.220052 15.8828 0.660156L18.7012 2.79297V2.81836H21.5449C21.9512 2.81836 22.2982 2.96647 22.5859 3.2627C22.8737 3.55892 23.0176 3.91016 23.0176 4.31641V6.01758L25.3789 7.76953C25.7682 8.05729 26.0941 8.46777 26.3564 9.00098C26.6188 9.53418 26.75 10.0462 26.75 10.5371V23.1055C26.75 23.901 26.4749 24.5824 25.9248 25.1494C25.3747 25.7165 24.7188 26 23.957 26ZM3.54297 24.7812H23.957C24.0586 24.7812 24.1559 24.7728 24.249 24.7559C24.3421 24.7389 24.431 24.7135 24.5156 24.6797L15.0957 16.7578C14.7233 16.4531 14.2747 16.3008 13.75 16.3008C13.2253 16.3008 12.7767 16.4531 12.4043 16.7578L2.98438 24.6797C3.06901 24.7135 3.15788 24.7389 3.25098 24.7559C3.34408 24.7728 3.44141 24.7812 3.54297 24.7812ZM4.48242 7.51562L2.80664 8.75977C2.75586 8.81055 2.70085 8.86133 2.6416 8.91211C2.58236 8.96289 2.52734 9.02214 2.47656 9.08984L4.48242 10.7656V7.51562ZM1.96875 10.2324C1.95182 10.2832 1.94336 10.334 1.94336 10.3848C1.94336 10.4355 1.94336 10.4863 1.94336 10.5371V23.1055C1.94336 23.2409 1.95605 23.3721 1.98145 23.499C2.00684 23.626 2.04492 23.7402 2.0957 23.8418L10.1445 17.0879L1.96875 10.2324ZM15.1973 1.65039C14.8079 1.36263 14.3255 1.21875 13.75 1.21875C13.1745 1.21875 12.6921 1.36263 12.3027 1.65039L10.7793 2.81836H16.7207L15.1973 1.65039ZM21.8496 4.31641C21.8496 4.2487 21.82 4.18522 21.7607 4.12598C21.7015 4.06673 21.6296 4.03711 21.5449 4.03711H5.95508C5.87044 4.03711 5.7985 4.06673 5.73926 4.12598C5.68001 4.18522 5.65039 4.2487 5.65039 4.31641V11.7559L11.084 16.3008L11.668 15.8184C12.2435 15.3275 12.9375 15.082 13.75 15.082C14.5625 15.082 15.2565 15.3275 15.832 15.8184L16.416 16.3008L21.8496 11.7559V4.31641ZM24.6934 8.75977L23.0176 7.51562V10.7656L25.0234 9.08984C24.9727 9.02214 24.9176 8.96289 24.8584 8.91211C24.7992 8.86133 24.7441 8.81055 24.6934 8.75977ZM25.5566 23.1055V10.5371C25.5566 10.4863 25.5566 10.4355 25.5566 10.3848C25.5566 10.334 25.5482 10.2832 25.5312 10.2324L17.3555 17.0879L25.4043 23.8418C25.4551 23.7402 25.4932 23.626 25.5186 23.499C25.5439 23.3721 25.5566 23.2409 25.5566 23.1055ZM18.5234 13.5078H8.97656C8.80729 13.5078 8.66341 13.4486 8.54492 13.3301C8.42643 13.2116 8.36719 13.0677 8.36719 12.8984C8.36719 12.7292 8.42643 12.5853 8.54492 12.4668C8.66341 12.3483 8.80729 12.2891 8.97656 12.2891H18.5234C18.6927 12.2891 18.8366 12.3483 18.9551 12.4668C19.0736 12.5853 19.1328 12.7292 19.1328 12.8984C19.1328 13.0677 19.0736 13.2116 18.9551 13.3301C18.8366 13.4486 18.6927 13.5078 18.5234 13.5078ZM18.5234 10.4863H8.97656C8.80729 10.4863 8.66341 10.4271 8.54492 10.3086C8.42643 10.1901 8.36719 10.0462 8.36719 9.87695C8.36719 9.70768 8.42643 9.5638 8.54492 9.44531C8.66341 9.32682 8.80729 9.26758 8.97656 9.26758H18.5234C18.6927 9.26758 18.8366 9.32682 18.9551 9.44531C19.0736 9.5638 19.1328 9.70768 19.1328 9.87695C19.1328 10.0462 19.0736 10.1901 18.9551 10.3086C18.8366 10.4271 18.6927 10.4863 18.5234 10.4863ZM18.5234 7.49023H8.97656C8.80729 7.49023 8.66341 7.43099 8.54492 7.3125C8.42643 7.19401 8.36719 7.05013 8.36719 6.88086C8.36719 6.71159 8.42643 6.56771 8.54492 6.44922C8.66341 6.33073 8.80729 6.27148 8.97656 6.27148H18.5234C18.6927 6.27148 18.8366 6.33073 18.9551 6.44922C19.0736 6.56771 19.1328 6.71159 19.1328 6.88086C19.1328 7.05013 19.0736 7.19401 18.9551 7.3125C18.8366 7.43099 18.6927 7.49023 18.5234 7.49023Z" fill="#347A2A"/>
</svg>