<svg xmlns="http://www.w3.org/2000/svg" width="27" height="26" viewBox="0 0 27 26" fill="none">
<path d="M13.02 26C11.1919 26 9.48649 25.8604 7.90381 25.5811C6.32113 25.3018 4.9458 24.9167 3.77783 24.4258C2.60986 23.9349 1.69157 23.3594 1.02295 22.6992C0.354329 22.0391 0.0200195 21.3281 0.0200195 20.5664C0.0200195 20.0417 0.168132 19.5423 0.464355 19.0684C0.760579 18.5944 1.20492 18.1543 1.79736 17.748C2.1359 17.4941 2.53369 17.2529 2.99072 17.0244C3.44775 16.7959 3.93864 16.5885 4.46338 16.4023C4.81885 16.2839 5.18701 16.1696 5.56787 16.0596C5.94873 15.9495 6.34229 15.8522 6.74854 15.7676C6.93473 15.7168 7.10824 15.7464 7.26904 15.8564C7.42985 15.9665 7.52718 16.1061 7.56104 16.2754C7.61182 16.4616 7.58643 16.6351 7.48486 16.7959C7.3833 16.9567 7.23942 17.0625 7.05322 17.1133C6.6639 17.1979 6.29574 17.291 5.94873 17.3926C5.60173 17.4941 5.26742 17.5957 4.9458 17.6973C4.47184 17.8665 4.03597 18.0485 3.63818 18.2432C3.2404 18.4378 2.89762 18.6452 2.60986 18.8652C2.33903 19.0514 2.07243 19.2926 1.81006 19.5889C1.54769 19.8851 1.4165 20.2109 1.4165 20.5664C1.4165 21.0404 1.70003 21.5186 2.26709 22.001C2.83415 22.4834 3.62972 22.9193 4.65381 23.3086C5.6779 23.6979 6.90088 24.0111 8.32275 24.248C9.74463 24.485 11.3104 24.6035 13.02 24.6035C14.7297 24.6035 16.2954 24.485 17.7173 24.248C19.1392 24.0111 20.3621 23.6979 21.3862 23.3086C22.4103 22.9193 23.2059 22.4834 23.7729 22.001C24.34 21.5186 24.6235 21.0404 24.6235 20.5664C24.6235 20.2109 24.4924 19.8851 24.23 19.5889C23.9676 19.2926 23.701 19.0514 23.4302 18.8652C23.1424 18.6452 22.7996 18.4378 22.4019 18.2432C22.0041 18.0485 21.5682 17.8665 21.0942 17.6973C20.7896 17.5957 20.4637 17.4941 20.1167 17.3926C19.7697 17.291 19.41 17.1979 19.0376 17.1133C18.953 17.0964 18.8726 17.0625 18.7964 17.0117C18.7202 16.9609 18.6567 16.8932 18.606 16.8086C18.5552 16.7409 18.5213 16.6605 18.5044 16.5674C18.4875 16.4743 18.4875 16.3854 18.5044 16.3008C18.5552 16.1146 18.661 15.9707 18.8218 15.8691C18.9826 15.7676 19.1561 15.7337 19.3423 15.7676C19.7485 15.8522 20.1379 15.9495 20.5103 16.0596C20.8826 16.1696 21.2381 16.2839 21.5767 16.4023C22.1183 16.5885 22.6134 16.7959 23.062 17.0244C23.5106 17.2529 23.9041 17.4857 24.2427 17.7227C24.8351 18.1458 25.2795 18.5944 25.5757 19.0684C25.8719 19.5423 26.02 20.0417 26.02 20.5664C26.02 21.3281 25.6857 22.0391 25.0171 22.6992C24.3485 23.3594 23.4302 23.9349 22.2622 24.4258C21.0942 24.9167 19.7189 25.3018 18.1362 25.5811C16.5535 25.8604 14.8481 26 13.02 26ZM16.3208 17.3164C15.9315 17.8919 15.5422 18.404 15.1528 18.8525C14.7635 19.3011 14.5435 19.5508 14.4927 19.6016C14.2896 19.8047 14.0653 19.9613 13.8198 20.0713C13.5744 20.1813 13.3078 20.2363 13.02 20.2363C12.7492 20.2363 12.4868 20.1813 12.2329 20.0713C11.979 19.9613 11.7505 19.8047 11.5474 19.6016C11.5304 19.5677 11.3104 19.3138 10.8872 18.8398C10.464 18.3659 10.0578 17.8242 9.66846 17.2148C9.29606 16.6562 8.96175 16.123 8.66553 15.6152C8.3693 15.1074 8.09424 14.625 7.84033 14.168C7.11247 12.8138 6.5835 11.5612 6.25342 10.4102C5.92334 9.25911 5.7583 8.11654 5.7583 6.98242C5.7583 6.03451 5.95296 5.13737 6.34229 4.29102C6.73161 3.44466 7.25635 2.7041 7.9165 2.06934C8.57666 1.43457 9.34684 0.93099 10.2271 0.558594C11.1073 0.186198 12.0382 0 13.02 0C14.0018 0 14.9328 0.186198 15.813 0.558594C16.6932 0.93099 17.4634 1.43457 18.1235 2.06934C18.7837 2.7041 19.3084 3.44466 19.6978 4.29102C20.0871 5.13737 20.2817 6.03451 20.2817 6.98242C20.2817 8.16732 20.0913 9.38184 19.7104 10.626C19.3296 11.8701 18.7244 13.2285 17.895 14.7012C17.675 15.1074 17.4338 15.5264 17.1714 15.958C16.909 16.3896 16.6255 16.8424 16.3208 17.3164ZM13.02 1.39648C12.2244 1.39648 11.4712 1.5446 10.7603 1.84082C10.0493 2.13704 9.42725 2.53906 8.89404 3.04688C8.36084 3.55469 7.93766 4.14714 7.62451 4.82422C7.31136 5.5013 7.15479 6.2207 7.15479 6.98242C7.15479 7.98112 7.30713 9.00521 7.61182 10.0547C7.9165 11.1042 8.39893 12.2552 9.05908 13.5078C9.31299 13.9648 9.58382 14.4346 9.87158 14.917C10.1593 15.3994 10.481 15.9115 10.8364 16.4531C11.1919 17.0286 11.5685 17.5365 11.9663 17.9766C12.3641 18.4167 12.563 18.6367 12.563 18.6367C12.6815 18.7721 12.8338 18.8398 13.02 18.8398C13.2062 18.8398 13.3586 18.7721 13.4771 18.6367C13.494 18.6198 13.6886 18.404 14.061 17.9893C14.4334 17.5745 14.7974 17.0964 15.1528 16.5547C15.4406 16.0977 15.7114 15.6618 15.9653 15.2471C16.2192 14.8324 16.4562 14.4303 16.6763 14.041C17.4549 12.653 18.0177 11.4004 18.3647 10.2832C18.7118 9.16602 18.8853 8.06576 18.8853 6.98242C18.8853 6.2207 18.7287 5.5013 18.4155 4.82422C18.1024 4.14714 17.6792 3.55469 17.146 3.04688C16.6128 2.53906 15.9907 2.13704 15.2798 1.84082C14.5688 1.5446 13.8156 1.39648 13.02 1.39648ZM13.02 10.1562C12.1737 10.1562 11.45 9.85579 10.8491 9.25488C10.2482 8.65397 9.94775 7.93034 9.94775 7.08398C9.94775 6.25456 10.2482 5.53939 10.8491 4.93848C11.45 4.33757 12.1737 4.03711 13.02 4.03711C13.8664 4.03711 14.59 4.33757 15.1909 4.93848C15.7918 5.53939 16.0923 6.25456 16.0923 7.08398C16.0923 7.93034 15.7918 8.65397 15.1909 9.25488C14.59 9.85579 13.8664 10.1562 13.02 10.1562ZM13.02 5.35742C12.5461 5.35742 12.1356 5.52669 11.7886 5.86523C11.4416 6.20378 11.2681 6.61003 11.2681 7.08398C11.2681 7.57487 11.4416 7.98535 11.7886 8.31543C12.1356 8.64551 12.5461 8.81055 13.02 8.81055C13.494 8.81055 13.9045 8.64551 14.2515 8.31543C14.5985 7.98535 14.772 7.57487 14.772 7.08398C14.772 6.61003 14.5985 6.20378 14.2515 5.86523C13.9045 5.52669 13.494 5.35742 13.02 5.35742Z" fill="#347A2A"/>
</svg>