<svg
                  xmlns="http://www.w3.org/2000/svg"
                  width="15"
                  height="15"
                  viewBox="0 0 15 15"
                  fill="none"
                >
                  <path
                    d="M14.4219 5.44656C14.4948 5.71089 14.5495 5.97977 14.5859 6.2532C14.6224 6.52664 14.6406 6.80919 14.6406 7.10086C14.6406 7.51102 14.6019 7.91434 14.5244 8.31082C14.4469 8.70731 14.3398 9.08784 14.2031 9.45242C14.0664 9.81701 13.8978 10.1656 13.6973 10.4983C13.4967 10.831 13.2734 11.1432 13.0273 11.4348L10.9766 9.38406C11.2227 9.06505 11.4141 8.71186 11.5508 8.32449C11.6875 7.93712 11.7559 7.52925 11.7559 7.10086C11.7559 6.60867 11.667 6.14611 11.4893 5.71317C11.3115 5.28022 11.07 4.89513 10.7646 4.55789C10.4593 4.22065 10.0993 3.94721 9.68457 3.73758C9.26986 3.52794 8.82096 3.40034 8.33789 3.35477V0.470001C8.88477 0.497345 9.41341 0.588491 9.92383 0.743439C10.4342 0.898387 10.9128 1.10802 11.3594 1.37234C11.806 1.63667 12.2161 1.94884 12.5898 2.30887C12.9635 2.66889 13.2917 3.0631 13.5742 3.49149L14.9961 4.10672L14.4219 5.44656ZM12.9727 10.5598C13.1641 10.2773 13.3327 9.98107 13.4785 9.67117C13.6243 9.36128 13.7428 9.04227 13.834 8.71414L12.4805 10.0677L12.9727 10.5598ZM11.7285 9.3157L12.1387 9.72586L14.0117 7.85281C14.0208 7.73432 14.0299 7.61128 14.0391 7.48367C14.0482 7.35607 14.0527 7.22846 14.0527 7.10086C14.0527 7.05529 14.0527 7.00744 14.0527 6.95731C14.0527 6.90718 14.0527 6.85932 14.0527 6.81375L11.9336 8.91922C11.8971 8.99214 11.863 9.0605 11.8311 9.1243C11.7992 9.1881 11.765 9.2519 11.7285 9.3157ZM12.248 7.92117L13.9844 6.18484C13.9661 6.08458 13.9479 5.98432 13.9297 5.88406C13.9115 5.7838 13.8887 5.68354 13.8613 5.58328L13.8203 5.41922L12.3301 6.90945C12.3301 6.94591 12.3301 6.97781 12.3301 7.00516C12.3301 7.0325 12.3301 7.0644 12.3301 7.10086C12.3301 7.23758 12.3232 7.3743 12.3096 7.51102C12.2959 7.64774 12.2754 7.78445 12.248 7.92117ZM8.91211 1.11258V1.90555L9.56836 1.2493C9.4681 1.22195 9.36328 1.19689 9.25391 1.1741C9.14453 1.15132 9.0306 1.13081 8.91211 1.11258ZM10.0879 1.41336L8.91211 2.58914V2.86258C9.03971 2.88992 9.16504 2.92182 9.28809 2.95828C9.41113 2.99474 9.5319 3.03576 9.65039 3.08133L10.9355 1.79617C10.7988 1.72326 10.6598 1.6549 10.5186 1.59109C10.3773 1.52729 10.2337 1.46805 10.0879 1.41336ZM11.3594 2.05594L10.1016 3.31375C10.2383 3.38667 10.3682 3.46642 10.4912 3.55301C10.6143 3.6396 10.735 3.73302 10.8535 3.83328L12.0703 2.61649C11.9609 2.51623 11.847 2.41824 11.7285 2.32254C11.61 2.22684 11.487 2.13797 11.3594 2.05594ZM12.4121 2.95828L11.1953 4.16141C11.3047 4.2799 11.4072 4.40522 11.5029 4.53738C11.5986 4.66955 11.6875 4.80399 11.7695 4.9407L13.0137 3.69656C12.9225 3.56896 12.8268 3.44136 12.7266 3.31375C12.6263 3.18615 12.5215 3.06766 12.4121 2.95828ZM13.3691 4.03836L11.9883 5.40555C12.0521 5.54227 12.1068 5.68582 12.1523 5.83621C12.1979 5.9866 12.2344 6.13927 12.2617 6.29422L14.1758 4.38016L13.3691 4.03836ZM12.5488 11.927C12.248 12.2096 11.9199 12.4648 11.5645 12.6927C11.209 12.9205 10.8353 13.1119 10.4434 13.2669L9.63672 14.47L8.50195 13.718C8.41992 13.718 8.33561 13.7203 8.24902 13.7249C8.16243 13.7294 8.07812 13.7317 7.99609 13.7317C7.64062 13.7317 7.29199 13.7044 6.9502 13.6497C6.6084 13.595 6.27799 13.5175 5.95898 13.4173L7.03906 10.7239C7.19401 10.7695 7.35124 10.8014 7.51074 10.8196C7.67025 10.8378 7.83203 10.847 7.99609 10.847C8.47917 10.847 8.9349 10.7626 9.36328 10.594C9.79167 10.4254 10.1745 10.1907 10.5117 9.88992L12.5488 11.927ZM7.99609 11.4348C7.89583 11.4348 7.79557 11.4303 7.69531 11.4212C7.59505 11.4121 7.49479 11.4029 7.39453 11.3938L6.73828 13.0208C6.94792 13.0664 7.15755 13.1005 7.36719 13.1233C7.57682 13.1461 7.78646 13.1575 7.99609 13.1575C8.06901 13.1575 8.14648 13.1552 8.22852 13.1507C8.31055 13.1461 8.38802 13.1393 8.46094 13.1302L8.66602 13.1165L8.83008 13.2259L9.48633 13.6634L10.0605 12.802L10.2246 12.7337C10.4889 12.6243 10.7441 12.5013 10.9902 12.3645C11.2363 12.2278 11.4733 12.0683 11.7012 11.886L10.4707 10.6555C10.1061 10.9108 9.71419 11.1044 9.29492 11.2366C8.87565 11.3688 8.44271 11.4348 7.99609 11.4348ZM4.23633 7.10086C4.23633 6.60867 4.3252 6.14611 4.50293 5.71317C4.68066 5.28022 4.9222 4.89513 5.22754 4.55789C5.53288 4.22065 5.89518 3.94721 6.31445 3.73758C6.73372 3.52794 7.18034 3.40034 7.6543 3.35477V0.470001C6.92513 0.50646 6.23242 0.65685 5.57617 0.921173C4.91992 1.1855 4.3252 1.53413 3.79199 1.96707C3.25879 2.40001 2.80078 2.91043 2.41797 3.49832C2.03516 4.08621 1.75716 4.72195 1.58398 5.40555L0.503906 6.44461L1.36523 7.33328C1.38346 7.98042 1.49512 8.60249 1.7002 9.19949C1.90527 9.7965 2.18099 10.3479 2.52734 10.8538C2.8737 11.3596 3.28385 11.8108 3.75781 12.2073C4.23177 12.6038 4.7513 12.9251 5.31641 13.1712L6.39648 10.4915C5.75846 10.1907 5.23893 9.73725 4.83789 9.13113C4.43685 8.52501 4.23633 7.84826 4.23633 7.10086Z"
                    fill="#202E24"
                  />
                </svg>