<svg xmlns="http://www.w3.org/2000/svg" width="27" height="26" viewBox="0 0 27 26" fill="none">
<path d="M25.492 10.6387C25.1704 10.9095 24.7811 11.1126 24.3241 11.248C23.867 11.3835 23.3423 11.4512 22.7498 11.4512C22.5806 11.4512 22.4071 11.4469 22.2293 11.4385C22.0516 11.43 21.8612 11.4173 21.6581 11.4004C20.6763 11.3158 19.923 11.0365 19.3983 10.5625C18.8735 10.0885 18.5435 9.38607 18.4081 8.45508V8.42969C18.3742 8.27734 18.3488 8.05306 18.3319 7.75684C18.315 7.46061 18.3065 7.27018 18.3065 7.18555C18.3065 7.11784 18.2769 7.03743 18.2176 6.94434C18.1584 6.85124 18.1034 6.78776 18.0526 6.75391C18.0526 6.75391 17.731 6.66504 17.0877 6.4873C16.4445 6.30957 15.3019 6.21224 13.66 6.19531C12.0011 6.21224 10.8543 6.30957 10.2196 6.4873C9.58481 6.66504 9.25896 6.76237 9.24203 6.7793C9.20818 6.79622 9.16163 6.85124 9.10239 6.94434C9.04314 7.03743 9.01352 7.11784 9.01352 7.18555C9.01352 7.27018 9.00506 7.46484 8.98813 7.76953C8.9712 8.07422 8.94581 8.30273 8.91196 8.45508C8.77654 9.40299 8.45069 10.1097 7.93442 10.5752C7.41814 11.0407 6.66065 11.3158 5.66196 11.4004C5.45883 11.4173 5.2684 11.43 5.09067 11.4385C4.91293 11.4469 4.73943 11.4512 4.57016 11.4512C3.97771 11.4512 3.45297 11.3835 2.99594 11.248C2.53891 11.1126 2.14959 10.9095 1.82797 10.6387C1.43865 10.2832 1.14666 9.83464 0.951996 9.29297C0.757334 8.7513 0.660004 8.09115 0.660004 7.3125C0.660004 6.58464 0.86736 5.88639 1.28207 5.21777C1.69679 4.54915 2.25961 4.02018 2.97055 3.63086C3.05519 3.56315 3.35141 3.38965 3.85922 3.11035C4.36703 2.83105 5.07374 2.53483 5.97934 2.22168C6.88494 1.90853 7.97674 1.625 9.25473 1.37109C10.5327 1.11719 12.0011 0.990234 13.66 0.990234H13.6854C15.3273 0.990234 16.7915 1.11719 18.078 1.37109C19.3644 1.625 20.4562 1.90853 21.3534 2.22168C22.2505 2.53483 22.953 2.83529 23.4608 3.12305C23.9686 3.41081 24.2733 3.58854 24.3748 3.65625C25.0689 4.02865 25.6232 4.54915 26.0379 5.21777C26.4526 5.88639 26.66 6.58464 26.66 7.3125C26.66 8.09115 26.5627 8.7513 26.368 9.29297C26.1734 9.83464 25.8814 10.2832 25.492 10.6387ZM23.6385 4.79883C23.6385 4.7819 23.6301 4.76921 23.6131 4.76074C23.5962 4.75228 23.5877 4.74805 23.5877 4.74805C23.5708 4.74805 23.3423 4.62109 22.9022 4.36719C22.4621 4.11328 21.8189 3.83398 20.9725 3.5293C20.1261 3.22461 19.0894 2.94954 17.8622 2.7041C16.6349 2.45866 15.2342 2.33594 13.66 2.33594C12.0858 2.33594 10.6808 2.45866 9.44516 2.7041C8.20948 2.94954 7.1727 3.22461 6.33481 3.5293C5.49692 3.83398 4.85792 4.11328 4.41782 4.36719C3.97771 4.62109 3.7492 4.74805 3.73227 4.74805C3.71534 4.76497 3.70265 4.77344 3.69418 4.77344C3.68572 4.77344 3.67302 4.7819 3.6561 4.79883C3.16521 5.06966 2.77166 5.43359 2.47543 5.89062C2.17921 6.34766 2.0311 6.82161 2.0311 7.3125C2.0311 7.88802 2.09034 8.36621 2.20883 8.74707C2.32732 9.12793 2.51352 9.42839 2.76743 9.64844C2.95362 9.80078 3.19483 9.91927 3.49106 10.0039C3.78728 10.0885 4.14698 10.1309 4.57016 10.1309C4.70558 10.1309 4.85369 10.1266 5.0145 10.1182C5.1753 10.1097 5.34881 10.097 5.535 10.0801C6.19516 10.0124 6.66912 9.85156 6.95688 9.59766C7.24464 9.34375 7.4393 8.90365 7.54086 8.27734V8.25195C7.55779 8.16732 7.57472 7.99382 7.59164 7.73145C7.60857 7.46908 7.61703 7.27018 7.61703 7.13477C7.63396 6.84701 7.72706 6.55924 7.89633 6.27148C8.0656 5.98372 8.28565 5.76367 8.55649 5.61133C8.64112 5.56055 9.03045 5.42936 9.72446 5.21777C10.4185 5.00618 11.6372 4.89193 13.3807 4.875C13.3807 4.85807 13.3849 4.84961 13.3934 4.84961C13.4019 4.84961 13.4146 4.84961 13.4315 4.84961H13.66H13.8885C13.9054 4.84961 13.9181 4.84961 13.9266 4.84961C13.9351 4.84961 13.9478 4.85807 13.9647 4.875C15.6913 4.89193 16.9015 5.00618 17.5956 5.21777C18.2896 5.42936 18.6789 5.56055 18.7635 5.61133C19.0174 5.76367 19.2332 5.98372 19.411 6.27148C19.5887 6.55924 19.686 6.84701 19.703 7.13477C19.703 7.35482 19.7114 7.57487 19.7284 7.79492C19.7453 8.01497 19.7622 8.15885 19.7791 8.22656V8.25195C19.8807 8.89518 20.0711 9.34375 20.3504 9.59766C20.6297 9.85156 21.1079 10.0124 21.785 10.0801C21.9712 10.097 22.1447 10.1097 22.3055 10.1182C22.4663 10.1266 22.6144 10.1309 22.7498 10.1309C23.173 10.1309 23.5327 10.0885 23.8289 10.0039C24.1252 9.91927 24.3664 9.80078 24.5526 9.64844C24.7896 9.42839 24.9673 9.12793 25.0858 8.74707C25.2043 8.36621 25.2635 7.88802 25.2635 7.3125C25.2635 6.82161 25.1196 6.34766 24.8319 5.89062C24.5441 5.43359 24.1463 5.06966 23.6385 4.79883ZM9.19125 10.9688C9.22511 10.9349 9.26319 10.8757 9.30551 10.791C9.34783 10.7064 9.36899 10.6387 9.36899 10.5879V9.64844C9.36899 9.17448 9.53826 8.77669 9.8768 8.45508C10.2153 8.13346 10.6216 7.97266 11.0956 7.97266C11.5864 7.97266 12.0011 8.13346 12.3397 8.45508C12.6782 8.77669 12.8475 9.17448 12.8475 9.64844V10.4609H14.6248V9.64844C14.6248 9.17448 14.7984 8.77669 15.1454 8.45508C15.4924 8.13346 15.9028 7.97266 16.3768 7.97266C16.8508 7.97266 17.257 8.13346 17.5956 8.45508C17.9341 8.77669 18.1034 9.17448 18.1034 9.64844V10.5879C18.1034 10.6387 18.1245 10.7064 18.1668 10.791C18.2092 10.8757 18.2472 10.9349 18.2811 10.9688L20.6932 13.0254C20.744 13.0423 20.7863 13.0592 20.8202 13.0762C20.854 13.0931 20.8879 13.1185 20.9217 13.1523L23.0291 14.9297C23.3846 15.2344 23.6851 15.6449 23.9305 16.1611C24.176 16.6774 24.2987 17.1641 24.2987 17.6211V22.4199C24.2987 23.1309 24.0151 23.7402 23.4481 24.248C22.881 24.7559 22.1997 25.0098 21.4041 25.0098H5.91586C5.12029 25.0098 4.43898 24.7601 3.87192 24.2607C3.30486 23.7614 3.02133 23.1562 3.02133 22.4453V17.6973C3.02133 17.2233 3.14405 16.7324 3.3895 16.2246C3.63494 15.7168 3.94386 15.3105 4.31625 15.0059L9.19125 10.9688ZM4.41782 22.4453C4.41782 22.7839 4.5617 23.0716 4.84946 23.3086C5.13722 23.5456 5.49269 23.6641 5.91586 23.6641H21.4041C21.8273 23.6641 22.1828 23.5413 22.4706 23.2959C22.7583 23.0505 22.9022 22.7585 22.9022 22.4199V17.6211C22.9022 17.3503 22.8218 17.0456 22.661 16.707C22.5002 16.3685 22.3182 16.1061 22.1151 15.9199L20.2362 14.3457C20.2023 14.3288 20.1642 14.3076 20.1219 14.2822C20.0796 14.2568 20.0415 14.2357 20.0077 14.2188L17.367 11.9844C17.1808 11.8151 17.0285 11.5993 16.91 11.3369C16.7915 11.0745 16.7323 10.8249 16.7323 10.5879V9.64844C16.7323 9.54688 16.6984 9.46224 16.6307 9.39453C16.563 9.32682 16.4784 9.29297 16.3768 9.29297C16.2752 9.29297 16.1906 9.32682 16.1229 9.39453C16.0552 9.46224 16.0213 9.54688 16.0213 9.64844V10.5879C16.0213 10.9264 15.8986 11.21 15.6532 11.4385C15.4077 11.667 15.1157 11.7812 14.7772 11.7812H12.6952C12.3566 11.7812 12.0646 11.667 11.8192 11.4385C11.5737 11.21 11.451 10.9264 11.451 10.5879V9.64844C11.451 9.54688 11.4172 9.46224 11.3495 9.39453C11.2817 9.32682 11.1971 9.29297 11.0956 9.29297C11.0109 9.29297 10.9347 9.32682 10.867 9.39453C10.7993 9.46224 10.7655 9.54688 10.7655 9.64844V10.5879C10.7655 10.8418 10.702 11.0957 10.575 11.3496C10.4481 11.6035 10.2915 11.8151 10.1053 11.9844L5.20493 16.0215C5.0018 16.1908 4.81983 16.4447 4.65903 16.7832C4.49822 17.1217 4.41782 17.4264 4.41782 17.6973V22.4453ZM13.66 12.9746C14.7603 12.9746 15.7039 13.3555 16.4911 14.1172C17.2782 14.8789 17.6717 15.793 17.6717 16.8594C17.6717 17.9258 17.2782 18.8356 16.4911 19.5889C15.7039 20.3421 14.7603 20.7188 13.66 20.7188C12.5597 20.7188 11.6161 20.3421 10.8289 19.5889C10.0418 18.8356 9.64828 17.9258 9.64828 16.8594C9.64828 15.793 10.0418 14.8789 10.8289 14.1172C11.6161 13.3555 12.5597 12.9746 13.66 12.9746ZM13.66 19.3984C14.3879 19.3984 15.0099 19.1488 15.5262 18.6494C16.0425 18.1501 16.3006 17.5534 16.3006 16.8594C16.3006 16.1484 16.0425 15.5475 15.5262 15.0566C15.0099 14.5658 14.3879 14.3203 13.66 14.3203C12.9321 14.3203 12.3101 14.5658 11.7938 15.0566C11.2775 15.5475 11.0194 16.1484 11.0194 16.8594C11.0194 17.5534 11.2775 18.1501 11.7938 18.6494C12.3101 19.1488 12.9321 19.3984 13.66 19.3984Z" fill="#347A2A"/>
</svg>