<svg width="25" height="17" viewBox="0 0 25 17" fill="none" xmlns="http://www.w3.org/2000/svg">
<path id="Vector" d="M0.578125 8.71997C0.598958 8.77205 0.632812 8.81893 0.679688 8.8606C0.726562 8.90226 0.770833 8.93351 0.8125 8.95435L3.89062 10.0168C3.91146 10.0273 3.9349 10.0325 3.96094 10.0325C3.98698 10.0325 4.01042 10.0325 4.03125 10.0325C4.125 10.0325 4.21094 10.0038 4.28906 9.94653C4.36719 9.88924 4.42188 9.81893 4.45312 9.7356L6.85938 2.59497L7.03125 2.64185C7.33333 2.74601 7.64844 2.78768 7.97656 2.76685C8.30469 2.74601 8.61458 2.66789 8.90625 2.53247L9.20312 2.39185C9.38021 2.30851 9.57292 2.25903 9.78125 2.24341C9.98958 2.22778 10.1823 2.25122 10.3594 2.31372L16 4.28247C15.9688 4.39705 15.9219 4.51945 15.8594 4.64966C15.7969 4.77987 15.7135 4.88143 15.6094 4.95435C15.4844 5.03768 15.3307 5.07935 15.1484 5.07935C14.9661 5.07935 14.7604 5.03768 14.5312 4.95435L12.0156 4.09497C11.9635 4.06372 11.9062 4.0533 11.8438 4.06372C11.7812 4.07414 11.7188 4.08976 11.6562 4.1106C11.6042 4.14185 11.5573 4.18351 11.5156 4.2356C11.474 4.28768 11.4479 4.33976 11.4375 4.39185C11.4375 4.40226 11.3307 4.65226 11.1172 5.14185C10.9036 5.63143 10.5208 6.02726 9.96875 6.32935C9.625 6.51685 9.23698 6.6158 8.80469 6.62622C8.3724 6.63664 7.90104 6.55851 7.39062 6.39185C7.27604 6.35018 7.16406 6.35539 7.05469 6.40747C6.94531 6.45955 6.86979 6.54289 6.82812 6.65747C6.79688 6.78247 6.80729 6.89966 6.85938 7.00903C6.91146 7.11841 6.99479 7.18872 7.10938 7.21997C7.40104 7.32414 7.6849 7.39966 7.96094 7.44653C8.23698 7.49341 8.50521 7.51685 8.76562 7.51685C9.05729 7.51685 9.34115 7.4856 9.61719 7.4231C9.89323 7.3606 10.151 7.26164 10.3906 7.12622C10.8906 6.85539 11.276 6.51685 11.5469 6.1106C11.8177 5.70435 12.0104 5.3606 12.125 5.07935L14.2188 5.7981C14.5938 5.93351 14.9349 5.9882 15.2422 5.96216C15.5495 5.93612 15.8229 5.83976 16.0625 5.6731C16.4479 5.40226 16.6823 5.06632 16.7656 4.66528C16.849 4.26424 16.8906 4.03247 16.8906 3.96997C16.8906 3.8658 16.8646 3.77466 16.8125 3.69653C16.7604 3.61841 16.6927 3.55851 16.6094 3.51685L10.6406 1.4231C10.3281 1.31893 10.0104 1.27726 9.6875 1.2981C9.36458 1.31893 9.0625 1.40226 8.78125 1.5481L8.48438 1.70435C8.30729 1.78768 8.11458 1.83455 7.90625 1.84497C7.69792 1.85539 7.49479 1.82935 7.29688 1.76685L6.8125 1.59497C6.80208 1.58455 6.78906 1.57674 6.77344 1.57153C6.75781 1.56632 6.73958 1.55851 6.71875 1.5481L3.64062 0.485596C3.51562 0.454346 3.40104 0.464762 3.29688 0.516846C3.19271 0.568929 3.11979 0.652262 3.07812 0.766846L0.5 8.3606C0.510417 8.43351 0.518229 8.50122 0.523438 8.56372C0.528646 8.62622 0.546875 8.6783 0.578125 8.71997ZM3.84375 1.50122L6.04688 2.26685L3.76562 9.00122L1.54688 8.2356L3.84375 1.50122ZM3.29688 8.03247C3.26562 8.14705 3.19792 8.23039 3.09375 8.28247C2.98958 8.33455 2.88021 8.34497 2.76562 8.31372C2.65104 8.27205 2.56771 8.19914 2.51562 8.09497C2.46354 7.9908 2.45833 7.88143 2.5 7.76685C2.53125 7.65226 2.60156 7.56893 2.71094 7.51685C2.82031 7.46476 2.92708 7.45955 3.03125 7.50122C3.14583 7.54289 3.22917 7.6158 3.28125 7.71997C3.33333 7.82414 3.33854 7.9283 3.29688 8.03247ZM6.39062 10.1887L8.51562 9.12622C8.61979 9.07414 8.69271 8.9882 8.73438 8.86841C8.77604 8.74862 8.76562 8.63664 8.70312 8.53247C8.66146 8.41789 8.58333 8.33976 8.46875 8.2981C8.35417 8.25643 8.23958 8.26685 8.125 8.32935L6 9.39185C5.66667 9.56893 5.4349 9.83976 5.30469 10.2043C5.17448 10.5689 5.19792 10.9231 5.375 11.2668C5.42708 11.3606 5.48698 11.4517 5.55469 11.5403C5.6224 11.6288 5.69792 11.7096 5.78125 11.7825C5.625 11.9908 5.53125 12.2278 5.5 12.4934C5.46875 12.759 5.51562 13.0168 5.64062 13.2668C5.72396 13.4335 5.83333 13.5793 5.96875 13.7043C6.10417 13.8293 6.26042 13.9231 6.4375 13.9856C6.51042 14.0064 6.58333 14.0221 6.65625 14.0325C6.72917 14.0429 6.80729 14.0481 6.89062 14.0481C6.89062 14.1627 6.90104 14.2747 6.92188 14.384C6.94271 14.4934 6.97917 14.595 7.03125 14.6887C7.15625 14.9387 7.33073 15.134 7.55469 15.2747C7.77865 15.4153 8.01562 15.4856 8.26562 15.4856C8.36979 15.4856 8.47396 15.4726 8.57812 15.4465C8.68229 15.4205 8.78125 15.3814 8.875 15.3293L9.20312 15.1887C9.21354 15.2721 9.22656 15.3528 9.24219 15.4309C9.25781 15.509 9.28125 15.595 9.3125 15.6887C9.4375 15.9283 9.61198 16.1184 9.83594 16.259C10.0599 16.3997 10.3021 16.47 10.5625 16.47C10.6562 16.47 10.7578 16.4569 10.8672 16.4309C10.9766 16.4049 11.0781 16.371 11.1719 16.3293L16.75 13.5637C17.375 13.2512 17.9714 12.8997 18.5391 12.509C19.1068 12.1184 19.6458 11.6887 20.1562 11.22L21.4062 10.0637L24.25 8.65747C24.3646 8.60539 24.4401 8.52205 24.4766 8.40747C24.513 8.29289 24.5052 8.1783 24.4531 8.06372L20.9688 0.860596C20.9375 0.808512 20.901 0.761637 20.8594 0.719971C20.8177 0.678304 20.7708 0.652262 20.7188 0.641846C20.6562 0.610596 20.5964 0.600179 20.5391 0.610596C20.4818 0.621012 20.4271 0.636637 20.375 0.657471L17.4531 2.09497C17.349 2.14705 17.276 2.23039 17.2344 2.34497C17.1927 2.45955 17.2031 2.57414 17.2656 2.68872L20.5938 9.59497L19.5469 10.5793C19.0781 11.0168 18.5755 11.4205 18.0391 11.7903C17.5026 12.1601 16.9427 12.4856 16.3594 12.7668L10.7812 15.5325C10.6562 15.595 10.5312 15.6054 10.4062 15.5637C10.2812 15.5221 10.1875 15.4387 10.125 15.3137C10.0625 15.1887 10.0521 15.0611 10.0938 14.9309C10.1354 14.8007 10.2188 14.7043 10.3438 14.6418L13.4531 13.095C13.5677 13.0429 13.6458 12.9596 13.6875 12.845C13.7292 12.7304 13.7188 12.6158 13.6562 12.5012C13.6042 12.3866 13.5208 12.3085 13.4062 12.2668C13.2917 12.2252 13.1823 12.2356 13.0781 12.2981L9.95312 13.8606L8.48438 14.5637C8.36979 14.6262 8.2474 14.6366 8.11719 14.595C7.98698 14.5533 7.89062 14.47 7.82812 14.345C7.80729 14.2825 7.79167 14.2226 7.78125 14.1653C7.77083 14.108 7.78125 14.0481 7.8125 13.9856C7.83333 13.9231 7.86198 13.8658 7.89844 13.8137C7.9349 13.7616 7.98438 13.72 8.04688 13.6887L9.21875 13.1106L12.5312 11.47C12.6458 11.4179 12.724 11.3319 12.7656 11.2122C12.8073 11.0924 12.7969 10.9804 12.7344 10.8762C12.6823 10.7616 12.599 10.6835 12.4844 10.6418C12.3698 10.6002 12.2552 10.6106 12.1406 10.6731L8.82812 12.3293L7.10938 13.1731C7.04688 13.1939 6.98438 13.2069 6.92188 13.2122C6.85938 13.2174 6.79688 13.2096 6.73438 13.1887C6.67188 13.1679 6.61719 13.1366 6.57031 13.095C6.52344 13.0533 6.47917 13.0012 6.4375 12.9387C6.38542 12.8241 6.38021 12.7017 6.42188 12.5715C6.46354 12.4413 6.54167 12.345 6.65625 12.2825L7.21875 12.0012L11.25 10.0168C11.3542 9.96476 11.4271 9.87882 11.4688 9.75903C11.5104 9.63924 11.5 9.52726 11.4375 9.4231C11.3854 9.30851 11.3021 9.23039 11.1875 9.18872C11.0729 9.14705 10.9635 9.15747 10.8594 9.21997L8.26562 10.5012L7.25 11.0168L6.82812 11.22C6.71354 11.2825 6.59115 11.2903 6.46094 11.2434C6.33073 11.1965 6.23438 11.1158 6.17188 11.0012C6.09896 10.8033 6.08854 10.634 6.14062 10.4934C6.19271 10.3528 6.27604 10.2512 6.39062 10.1887ZM20.3594 1.57935L23.4531 7.96997L21.3281 9.00122L18.2344 2.6106L20.3594 1.57935ZM21.6719 8.01685C21.6198 7.90226 21.612 7.79028 21.6484 7.68091C21.6849 7.57153 21.7552 7.4908 21.8594 7.43872C21.974 7.39705 22.0859 7.39185 22.1953 7.4231C22.3047 7.45435 22.3802 7.52726 22.4219 7.64185C22.474 7.75643 22.4818 7.86841 22.4453 7.97778C22.4089 8.08716 22.3385 8.16268 22.2344 8.20435C22.1302 8.25643 22.0234 8.26164 21.9141 8.21997C21.8047 8.1783 21.724 8.1106 21.6719 8.01685Z" fill="white"/>
</svg>
