<svg width="17" height="17" viewBox="0 0 17 17" fill="none" xmlns="http://www.w3.org/2000/svg">
<path id="Vector" d="M16.0625 2.46997H8.04688V0.907471C8.04688 0.792887 8.0026 0.691325 7.91406 0.602783C7.82552 0.514242 7.71875 0.469971 7.59375 0.469971H2.39062C2.27604 0.469971 2.17448 0.514242 2.08594 0.602783C1.9974 0.691325 1.95312 0.792887 1.95312 0.907471V2.46997H0.9375C0.822917 2.46997 0.721354 2.51424 0.632812 2.60278C0.544271 2.69132 0.5 2.79289 0.5 2.90747V4.68872C0.5 4.81372 0.544271 4.92049 0.632812 5.00903C0.721354 5.09757 0.822917 5.14185 0.9375 5.14185H1.95312V16.0012C1.95312 16.0116 1.95312 16.0168 1.95312 16.0168C1.94271 16.1418 1.97917 16.2486 2.0625 16.3372C2.14583 16.4257 2.25521 16.47 2.39062 16.47C2.41146 16.47 2.6901 16.47 3.22656 16.47C3.76302 16.47 4.35417 16.47 5 16.47C5.64583 16.47 6.23698 16.47 6.77344 16.47C7.3099 16.47 7.58333 16.47 7.59375 16.47C7.72917 16.47 7.83854 16.4257 7.92188 16.3372C8.00521 16.2486 8.04688 16.1418 8.04688 16.0168C8.04688 16.0168 8.04688 16.0116 8.04688 16.0012V5.12622H12.3438V8.00122H11.5938C11.4688 8.00122 11.3646 8.04289 11.2812 8.12622C11.1979 8.20955 11.1562 8.31372 11.1562 8.43872V10.845C11.1562 10.9596 11.1979 11.0611 11.2812 11.1497C11.3646 11.2382 11.4688 11.2825 11.5938 11.2825H12.3438V11.47C11.9375 11.5741 11.599 11.7929 11.3281 12.1262C11.0573 12.4596 10.9219 12.845 10.9219 13.2825C10.9219 13.8033 11.1068 14.246 11.4766 14.6106C11.8464 14.9752 12.2865 15.1575 12.7969 15.1575C13.3073 15.1575 13.7448 14.9726 14.1094 14.6028C14.474 14.233 14.6562 13.7929 14.6562 13.2825C14.6562 13.1575 14.6146 13.0533 14.5312 12.97C14.4479 12.8866 14.3438 12.845 14.2188 12.845C14.0938 12.845 13.987 12.8866 13.8984 12.97C13.8099 13.0533 13.7656 13.1575 13.7656 13.2825C13.7656 13.5533 13.6719 13.7851 13.4844 13.9778C13.2969 14.1705 13.0677 14.2668 12.7969 14.2668C12.526 14.2668 12.2943 14.1705 12.1016 13.9778C11.9089 13.7851 11.8125 13.5533 11.8125 13.2825C11.8125 13.0116 11.9089 12.7825 12.1016 12.595C12.2943 12.4075 12.526 12.3137 12.7969 12.3137C12.9219 12.3137 13.026 12.2694 13.1094 12.1809C13.1927 12.0924 13.2344 11.9856 13.2344 11.8606V11.2825H14C14.125 11.2825 14.2292 11.2382 14.3125 11.1497C14.3958 11.0611 14.4375 10.9596 14.4375 10.845V8.43872C14.4375 8.31372 14.3958 8.20955 14.3125 8.12622C14.2292 8.04289 14.125 8.00122 14 8.00122H13.2344V5.12622H16.0625C16.1771 5.12622 16.2786 5.08455 16.3672 5.00122C16.4557 4.91789 16.5 4.81372 16.5 4.68872V2.90747C16.5 2.79289 16.4557 2.69132 16.3672 2.60278C16.2786 2.51424 16.1771 2.46997 16.0625 2.46997ZM2.84375 1.3606H7.15625V2.46997H2.84375V1.3606ZM3.5625 15.5637L5 14.2512L6.4375 15.5637H3.5625ZM2.84375 15.0168V12.2668L4.34375 13.6418L2.84375 15.0168ZM7.15625 15.0168L5.65625 13.6418L7.15625 12.2668V15.0168ZM7.15625 11.0637L5 13.0325L2.84375 11.0637V10.5012L5 8.51685L7.15625 10.5012V11.0637ZM2.84375 9.2981V6.5481L4.34375 7.9231L2.84375 9.2981ZM7.15625 9.2981L5.65625 7.9231L7.15625 6.5481V9.2981ZM7.15625 5.34497L5 7.31372L2.84375 5.34497V5.12622H7.15625V5.34497ZM13.5469 8.87622V10.3918H12.0312V8.87622H13.5469ZM15.6094 4.2356H1.39062V3.3606H15.6094V4.2356Z" fill="white"/>
</svg>
