<svg width="17" height="17" viewBox="0 0 17 17" fill="none" xmlns="http://www.w3.org/2000/svg">
<path id="Vector" d="M14.7812 16.47H2.21875C1.75 16.47 1.34635 16.2955 1.00781 15.9465C0.669271 15.5976 0.5 15.1783 0.5 14.6887V6.95435C0.5 6.65226 0.580729 6.33716 0.742188 6.00903C0.903646 5.68091 1.10417 5.4283 1.34375 5.25122L2.79688 4.1731V3.12622C2.79688 2.87622 2.88542 2.66007 3.0625 2.47778C3.23958 2.29549 3.45312 2.20435 3.70312 2.20435H5.46875L5.45312 2.18872L7.1875 0.876221C7.55208 0.605387 7.98958 0.469971 8.5 0.469971C9.01042 0.469971 9.44792 0.605387 9.8125 0.876221L11.5469 2.18872V2.20435H13.2969C13.5469 2.20435 13.7604 2.29549 13.9375 2.47778C14.1146 2.66007 14.2031 2.87622 14.2031 3.12622V4.1731L15.6562 5.25122C15.8958 5.4283 16.0964 5.68091 16.2578 6.00903C16.4193 6.33716 16.5 6.65226 16.5 6.95435V14.6887C16.5 15.1783 16.3307 15.5976 15.9922 15.9465C15.6536 16.2955 15.25 16.47 14.7812 16.47ZM2.21875 15.72H14.7812C14.8438 15.72 14.9036 15.7148 14.9609 15.7043C15.0182 15.6939 15.0729 15.6783 15.125 15.6575L9.32812 10.7825C9.09896 10.595 8.82292 10.5012 8.5 10.5012C8.17708 10.5012 7.90104 10.595 7.67188 10.7825L1.875 15.6575C1.92708 15.6783 1.98177 15.6939 2.03906 15.7043C2.09635 15.7148 2.15625 15.72 2.21875 15.72ZM2.79688 5.09497L1.76562 5.8606C1.73438 5.89185 1.70052 5.9231 1.66406 5.95435C1.6276 5.9856 1.59375 6.02205 1.5625 6.06372L2.79688 7.09497V5.09497ZM1.25 6.76685C1.23958 6.7981 1.23438 6.82935 1.23438 6.8606C1.23438 6.89185 1.23438 6.9231 1.23438 6.95435V14.6887C1.23438 14.7721 1.24219 14.8528 1.25781 14.9309C1.27344 15.009 1.29688 15.0793 1.32812 15.1418L6.28125 10.9856L1.25 6.76685ZM9.39062 1.4856C9.15104 1.30851 8.85417 1.21997 8.5 1.21997C8.14583 1.21997 7.84896 1.30851 7.60938 1.4856L6.67188 2.20435H10.3281L9.39062 1.4856ZM13.4844 3.12622C13.4844 3.08455 13.4661 3.04549 13.4297 3.00903C13.3932 2.97257 13.349 2.95435 13.2969 2.95435H3.70312C3.65104 2.95435 3.60677 2.97257 3.57031 3.00903C3.53385 3.04549 3.51562 3.08455 3.51562 3.12622V7.70435L6.85938 10.5012L7.21875 10.2043C7.57292 9.90226 8 9.75122 8.5 9.75122C9 9.75122 9.42708 9.90226 9.78125 10.2043L10.1406 10.5012L13.4844 7.70435V3.12622ZM15.2344 5.8606L14.2031 5.09497V7.09497L15.4375 6.06372C15.4062 6.02205 15.3724 5.9856 15.3359 5.95435C15.2995 5.9231 15.2656 5.89185 15.2344 5.8606ZM15.7656 14.6887V6.95435C15.7656 6.9231 15.7656 6.89185 15.7656 6.8606C15.7656 6.82935 15.7604 6.7981 15.75 6.76685L10.7188 10.9856L15.6719 15.1418C15.7031 15.0793 15.7266 15.009 15.7422 14.9309C15.7578 14.8528 15.7656 14.7721 15.7656 14.6887ZM11.4375 8.78247H5.5625C5.45833 8.78247 5.36979 8.74601 5.29688 8.6731C5.22396 8.60018 5.1875 8.51164 5.1875 8.40747C5.1875 8.3033 5.22396 8.21476 5.29688 8.14185C5.36979 8.06893 5.45833 8.03247 5.5625 8.03247H11.4375C11.5417 8.03247 11.6302 8.06893 11.7031 8.14185C11.776 8.21476 11.8125 8.3033 11.8125 8.40747C11.8125 8.51164 11.776 8.60018 11.7031 8.6731C11.6302 8.74601 11.5417 8.78247 11.4375 8.78247ZM11.4375 6.9231H5.5625C5.45833 6.9231 5.36979 6.88664 5.29688 6.81372C5.22396 6.7408 5.1875 6.65226 5.1875 6.5481C5.1875 6.44393 5.22396 6.35539 5.29688 6.28247C5.36979 6.20955 5.45833 6.1731 5.5625 6.1731H11.4375C11.5417 6.1731 11.6302 6.20955 11.7031 6.28247C11.776 6.35539 11.8125 6.44393 11.8125 6.5481C11.8125 6.65226 11.776 6.7408 11.7031 6.81372C11.6302 6.88664 11.5417 6.9231 11.4375 6.9231ZM11.4375 5.07935H5.5625C5.45833 5.07935 5.36979 5.04289 5.29688 4.96997C5.22396 4.89705 5.1875 4.80851 5.1875 4.70435C5.1875 4.60018 5.22396 4.51164 5.29688 4.43872C5.36979 4.3658 5.45833 4.32935 5.5625 4.32935H11.4375C11.5417 4.32935 11.6302 4.3658 11.7031 4.43872C11.776 4.51164 11.8125 4.60018 11.8125 4.70435C11.8125 4.80851 11.776 4.89705 11.7031 4.96997C11.6302 5.04289 11.5417 5.07935 11.4375 5.07935Z" fill="white"/>
</svg>
