<svg width="29" height="29" viewBox="0 0 29 29" fill="none" xmlns="http://www.w3.org/2000/svg">
<path id="Vector" d="M8.75781 11.6277L6.78906 13.5691L13.1055 19.8855L27.1055 5.8855L25.1367 3.91675L13.1055 15.948L8.75781 11.6277ZM25.7109 14.28C25.7109 15.8113 25.4147 17.2605 24.8223 18.6277C24.2298 19.9949 23.4277 21.1843 22.416 22.196C21.4043 23.2078 20.2148 24.0098 18.8477 24.6023C17.4805 25.1947 16.0312 25.491 14.5 25.491C12.9688 25.491 11.5195 25.1947 10.1523 24.6023C8.78516 24.0098 7.5957 23.2078 6.58398 22.196C5.57227 21.1843 4.77018 19.9949 4.17773 18.6277C3.58529 17.2605 3.28906 15.8113 3.28906 14.28C3.28906 12.7488 3.58529 11.2996 4.17773 9.93237C4.77018 8.56519 5.57227 7.37573 6.58398 6.36401C7.5957 5.35229 8.78516 4.55021 10.1523 3.95776C11.5195 3.36532 12.9688 3.06909 14.5 3.06909C15.0651 3.06909 15.5983 3.10555 16.0996 3.17847C16.6009 3.25138 17.0977 3.36076 17.5898 3.50659L19.832 1.2644C18.9753 0.990967 18.1003 0.758545 17.207 0.567139C16.3138 0.375732 15.4115 0.280029 14.5 0.280029C12.5677 0.280029 10.7539 0.64917 9.05859 1.38745C7.36328 2.12573 5.88216 3.12834 4.61523 4.39526C3.34831 5.66219 2.3457 7.14331 1.60742 8.83862C0.869141 10.5339 0.5 12.3477 0.5 14.28C0.5 16.2123 0.869141 18.0261 1.60742 19.7214C2.3457 21.4167 3.34831 22.8979 4.61523 24.1648C5.88216 25.4317 7.36328 26.4343 9.05859 27.1726C10.7539 27.9109 12.5677 28.28 14.5 28.28C16.4323 28.28 18.2461 27.9109 19.9414 27.1726C21.6367 26.4343 23.1178 25.4317 24.3848 24.1648C25.6517 22.8979 26.6543 21.4167 27.3926 19.7214C28.1309 18.0261 28.5 16.2123 28.5 14.28H25.7109Z" fill="white"/>
</svg>
